<?xml version="1.0" standalone="no"?>
<!DOCTYPE svg PUBLIC "-//W3C//DTD SVG 20010904//EN"
 "http://www.w3.org/TR/2001/REC-SVG-20010904/DTD/svg10.dtd">
<svg version="1.0" xmlns="http://www.w3.org/2000/svg"
 width="16.000000pt" height="16.000000pt" viewBox="0 0 16.000000 16.000000"
 preserveAspectRatio="xMidYMid meet">
<metadata>
Created by potrace 1.11, written by Peter Selinger 2001-2013
</metadata>
<g transform="translate(0.000000,16.000000) scale(0.006154,-0.006154)"
fill="#000000" stroke="none">
<path d="M1250 2518 c-287 -480 -544 -975 -662 -1271 -112 -283 -136 -422
-102 -592 32 -155 108 -297 220 -409 356 -356 965 -313 1264 89 130 174 184
393 146 584 -53 263 -273 738 -626 1356 -125 219 -183 315 -191 315 -3 0 -25
-33 -49 -72z m71 -493 c7 -19 17 -35 21 -35 4 0 8 -4 8 -8 0 -5 34 -71 76
-148 165 -300 330 -655 395 -849 29 -86 34 -114 34 -195 0 -83 -4 -104 -30
-165 -37 -87 -70 -137 -132 -196 -59 -58 -108 -88 -198 -124 -58 -23 -87 -28
-175 -30 -65 -2 -125 2 -157 11 -139 36 -280 140 -349 256 -84 145 -95 268
-38 439 19 56 41 116 48 133 8 17 33 76 57 131 78 185 403 814 421 815 4 0 12
-16 19 -35z"/>
</g>
</svg>
